<mxfile host="app.diagrams.net" modified="2024-06-25T16:28:09.757Z" agent="Mozilla/5.0 (Windows NT 10.0; Win64; x64) AppleWebKit/537.36 (KHTML, like Gecko) Chrome/126.0.0.0 Safari/537.36" etag="nIxiUXM1nXA90_rhawSe" version="24.6.3" type="github">
  <diagram id="C5RBs43oDa-KdzZeNtuy" name="Page-1">
    <mxGraphModel dx="1434" dy="738" grid="1" gridSize="10" guides="1" tooltips="1" connect="1" arrows="1" fold="1" page="1" pageScale="1" pageWidth="827" pageHeight="1169" math="0" shadow="0">
      <root>
        <mxCell id="WIyWlLk6GJQsqaUBKTNV-0" />
        <mxCell id="WIyWlLk6GJQsqaUBKTNV-1" parent="WIyWlLk6GJQsqaUBKTNV-0" />
        <mxCell id="k-8E-_AtTEcfo_DeZOWd-12" value="+-------------------+&#xa;|      Cliente      |&#xa;+-------------------+&#xa;| - id: int         |&#xa;| - nome: String    |&#xa;| - email: String   |&#xa;| - telefone: String|&#xa;+-------------------+&#xa;| + adicionarProjeto(projeto: Projeto): void  |&#xa;+-------------------+&#xa;&#xa;&#xa;         1&#xa;         |&#xa;         |&#xa;         |      +-------------------+&#xa;         +------|      Projeto      |&#xa;                +-------------------+&#xa;                | - id: int         |&#xa;                | - nome: String    |&#xa;                | - descricao: String|&#xa;                | - status: String  |&#xa;                | - cliente: Cliente|&#xa;                +-------------------+&#xa;                | + adicionarAtividade(atividade: Atividade): void  |&#xa;                | + listarAtividades(): List&lt;Atividade&gt;             |&#xa;                +-------------------+&#xa;                        |&#xa;                        |&#xa;                        |  *&#xa;         +---------------------------+&#xa;         |        Atividade          |&#xa;         +---------------------------+&#xa;         | - id: int                 |&#xa;         | - descricao: String       |&#xa;         | - status: String          |&#xa;         | - projeto: Projeto        |&#xa;         +---------------------------+&#xa;         | + atualizarStatus(status: String): void |&#xa;         +---------------------------+" style="text;whiteSpace=wrap;" vertex="1" parent="WIyWlLk6GJQsqaUBKTNV-1">
          <mxGeometry x="80" y="50" width="350" height="600" as="geometry" />
        </mxCell>
      </root>
    </mxGraphModel>
  </diagram>
</mxfile>
